<?xml version="1.0" standalone="no"?>
<!DOCTYPE svg PUBLIC "-//W3C//DTD SVG 20010904//EN"
 "http://www.w3.org/TR/2001/REC-SVG-20010904/DTD/svg10.dtd">
<svg version="1.0" xmlns="http://www.w3.org/2000/svg"
 width="512.000000pt" height="512.000000pt" viewBox="0 0 512.000000 512.000000"
 preserveAspectRatio="xMidYMid meet">
<metadata>
Created by potrace 1.14, written by Peter Selinger 2001-2017
</metadata>
<g transform="translate(0.000000,512.000000) scale(0.100000,-0.100000)"
fill="#000000" stroke="none">
<path d="M2309 4186 c-35 -77 62 -128 99 -52 12 23 11 31 -2 52 -23 34 -82 34
-97 0z"/>
<path d="M1440 3790 c-10 -25 -10 -34 4 -55 29 -44 106 -23 106 29 0 38 -19
56 -59 56 -33 0 -40 -4 -51 -30z"/>
<path d="M2051 3645 c-19 -8 -45 -28 -59 -43 -14 -15 -39 -36 -55 -47 -16 -12
-39 -39 -52 -60 -12 -22 -27 -41 -33 -41 -7 -1 -19 -2 -27 -3 -8 0 -23 -11
-35 -23 -19 -21 -20 -34 -20 -260 l0 -239 26 -24 c27 -25 29 -25 225 -25 161
0 199 -3 199 -14 0 -10 -24 -15 -94 -19 -102 -6 -155 -25 -201 -74 -28 -30
-55 -85 -55 -112 0 -10 -9 -17 -22 -18 -12 -1 -33 -11 -47 -21 l-26 -19 -3
-245 c-2 -234 -2 -245 18 -266 21 -22 23 -22 359 -22 318 0 340 1 362 19 23
19 24 25 29 198 4 149 7 178 20 178 13 0 15 -27 18 -171 2 -170 3 -172 29
-198 l26 -26 337 0 337 0 21 23 c21 23 22 31 22 263 0 228 -1 241 -20 262 -14
14 -33 22 -55 22 -30 0 -35 4 -46 37 -17 53 -94 126 -154 146 -27 9 -77 17
-112 17 -56 0 -63 2 -63 20 0 19 8 20 206 22 l207 3 19 26 c18 23 19 44 18
265 -2 277 -1 265 -11 258 -4 -2 -10 0 -14 6 -3 5 -17 10 -30 10 -39 0 -55 11
-70 46 -20 49 -73 103 -130 132 -65 34 -176 36 -245 5 -55 -25 -126 -95 -140
-139 -9 -26 -17 -33 -49 -38 -64 -10 -75 -33 -79 -152 -4 -94 -6 -104 -23
-104 -17 0 -19 8 -19 99 0 110 -16 147 -67 153 -22 2 -30 12 -44 51 -24 67
-43 93 -91 123 -37 23 -54 27 -147 31 -81 3 -114 0 -140 -12z m1005 -66 c63
-23 133 -119 134 -181 0 -25 -4 -28 -33 -28 -57 0 -126 26 -167 64 -51 46 -92
48 -133 9 -15 -16 -39 -38 -51 -50 -13 -13 -33 -23 -45 -23 -20 0 -21 4 -15
38 24 140 173 222 310 171z m-901 -197 c24 -21 62 -44 84 -51 39 -11 41 -14
41 -50 0 -60 -18 -97 -60 -125 -32 -21 -39 -32 -42 -63 -2 -30 -7 -38 -23 -38
-16 0 -21 8 -23 38 -3 31 -10 42 -41 63 -49 32 -61 60 -61 140 0 57 3 67 20
71 10 3 26 16 35 29 8 13 18 24 21 24 3 0 25 -17 49 -38z m791 17 c25 -29 83
-64 117 -73 25 -6 27 -10 27 -62 0 -47 -4 -60 -27 -83 -16 -15 -37 -32 -47
-38 -13 -7 -21 -26 -25 -54 -8 -58 -32 -59 -44 -2 -6 32 -18 50 -47 73 -42 33
-60 76 -60 142 0 48 8 68 29 68 10 0 23 11 29 25 14 31 23 31 48 4z m-1067
-77 c-19 -48 17 -102 67 -102 16 0 30 -13 48 -45 15 -25 41 -52 59 -61 30 -16
30 -18 13 -28 -44 -25 -96 -80 -106 -112 l-12 -35 -56 3 -57 3 -5 205 c-6 228
-5 237 19 242 22 5 42 -39 30 -70z m585 72 c13 -5 16 -24 16 -109 0 -102 0
-103 -26 -109 -37 -10 -97 -49 -127 -85 -14 -17 -30 -31 -34 -31 -14 0 -63 24
-63 31 0 4 16 17 34 30 19 13 44 41 56 61 13 23 29 38 40 38 55 0 83 47 67
110 -8 29 -8 42 2 54 15 18 14 18 35 10z m221 -105 c1 -57 -1 -107 -3 -112 -2
-4 -12 -2 -23 3 -17 9 -19 22 -19 103 0 90 10 122 34 114 7 -2 11 -46 11 -108z
m599 95 c14 -13 16 -47 16 -218 0 -203 -4 -226 -37 -226 -10 0 -13 48 -13 230
0 135 4 230 9 230 5 0 17 -7 25 -16z m-1314 -89 c0 -27 -6 -30 -29 -16 -17 11
-7 41 14 41 9 0 15 -9 15 -25z m403 11 c5 -14 -10 -36 -25 -36 -4 0 -8 11 -8
25 0 27 24 35 33 11z m414 -2 c9 -23 -13 -40 -32 -24 -12 10 -13 16 -4 26 15
18 28 18 36 -2z m398 -9 c0 -28 -29 -25 -33 3 -3 19 0 23 15 20 10 -2 18 -12
18 -23z m-385 -105 c7 -17 30 -46 52 -64 l39 -33 -26 -17 c-25 -16 -26 -16
-75 26 -40 34 -50 49 -50 74 0 17 3 34 7 37 16 16 41 5 53 -23z m390 -111 c0
-131 -9 -173 -25 -112 -10 40 -39 77 -79 98 -20 11 -36 22 -36 26 0 4 15 18
34 32 18 14 40 41 49 59 10 21 24 34 36 35 20 2 21 -3 21 -138z m-532 45 c30
-12 34 -17 22 -25 -13 -9 -12 -10 2 -5 18 5 78 -11 78 -22 0 -4 -21 -7 -47 -7
-27 0 -57 -4 -67 -8 -19 -7 -19 -8 0 -23 10 -9 13 -13 7 -9 -7 3 -13 1 -13 -4
0 -6 7 -11 16 -11 31 0 143 -61 169 -91 14 -18 23 -34 21 -37 -3 -3 -15 7 -26
21 -21 26 -123 80 -170 91 -19 4 -29 0 -39 -15 -16 -27 -9 -34 19 -17 18 10
24 10 27 1 3 -7 11 -13 19 -13 8 0 14 -4 14 -9 0 -5 -17 -7 -39 -4 -31 4 -42
1 -60 -18 -49 -53 -38 -138 19 -140 15 0 19 -3 10 -6 -8 -3 -21 -12 -27 -21
-11 -13 -13 -13 -13 -1 0 12 -2 12 -9 0 -5 -8 -15 -16 -23 -17 -7 -1 -21 -5
-30 -9 -12 -5 -18 -3 -18 6 0 8 -19 24 -42 37 -50 26 -58 27 -58 8 0 -17 60
-66 81 -66 8 0 23 -6 34 -14 11 -7 34 -17 51 -20 29 -6 32 -4 39 21 3 15 14
36 22 46 14 15 19 15 32 3 27 -23 90 -27 118 -9 l26 17 -17 -31 c-11 -22 -12
-33 -4 -35 17 -6 1 -56 -28 -83 -31 -29 -104 -49 -104 -29 0 18 -4 18 -43 -2
-17 -9 -61 -27 -97 -40 -36 -12 -57 -23 -47 -23 16 -1 17 -17 17 -191 l0 -190
-60 0 c-60 0 -60 0 -75 37 -20 47 -48 78 -86 93 -36 15 -36 20 4 45 18 11 41
37 52 57 14 27 28 38 51 42 17 4 40 16 50 27 20 23 25 90 6 97 -23 7 -12 22
12 16 33 -8 129 21 162 49 25 22 25 24 10 40 -10 9 -29 20 -44 23 -15 3 -62
24 -104 45 -64 32 -81 37 -102 29 -14 -5 -26 -14 -26 -20 0 -5 -6 -9 -12 -8
-8 2 -13 -7 -12 -19 1 -27 -14 -31 -22 -5 -3 9 -14 38 -25 64 -11 27 -18 67
-18 95 1 26 -3 60 -9 76 l-12 27 -105 0 c-58 0 -105 2 -105 5 0 19 29 59 51
70 24 13 28 12 44 -5 23 -26 65 -25 98 0 45 36 65 12 40 -49 -7 -19 -6 -32 6
-52 14 -25 17 -26 37 -13 12 8 28 13 35 12 24 -5 19 27 -7 45 -19 15 -28 16
-39 7 -12 -10 -13 -8 -10 8 14 77 74 126 200 167 48 16 142 11 193 -11z m279
-180 c-3 -3 -12 -4 -19 -1 -8 3 -5 6 6 6 11 1 17 -2 13 -5z m-689 -373 c31
-13 32 -14 32 -77 0 -75 -19 -127 -51 -145 -36 -19 -49 -35 -49 -61 0 -13 -6
-33 -14 -43 -13 -18 -14 -18 -25 3 -6 11 -11 29 -11 39 0 10 -21 36 -47 59
-44 39 -47 43 -51 102 -4 57 -3 62 16 62 27 0 80 24 122 54 19 15 37 25 40 23
3 -2 20 -9 38 -16z m-362 -15 c3 -13 1 -34 -6 -45 -22 -41 12 -97 64 -107 23
-4 37 -15 51 -42 11 -20 35 -46 53 -59 l33 -22 -39 -25 c-43 -27 -77 -69 -83
-101 -4 -17 -13 -20 -67 -23 -38 -2 -62 1 -62 8 0 5 0 102 0 215 0 113 0 210
0 215 0 6 11 10 25 10 18 0 26 -7 31 -24z m1409 2 c3 -13 4 -113 3 -223 l-3
-200 -60 -3 c-59 -3 -61 -2 -72 28 -11 30 -10 33 26 65 50 45 61 88 61 234 0
114 1 121 20 121 12 0 22 -9 25 -22z m-295 -18 c16 -11 42 -23 59 -26 30 -6
31 -8 31 -61 0 -53 -2 -57 -51 -105 -43 -42 -50 -53 -47 -81 3 -29 0 -32 -25
-35 -24 -3 -28 0 -26 20 5 54 -2 68 -41 93 -29 19 -42 35 -50 66 -17 63 -10
91 25 102 17 5 41 18 55 28 32 23 36 23 70 -1z m-315 -113 c5 -128 21 -178 71
-214 24 -17 26 -23 17 -49 -9 -28 -12 -29 -69 -29 l-59 0 -3 184 c-2 155 0
188 14 208 8 14 18 23 20 20 3 -2 7 -57 9 -120z m-715 58 c0 -15 -6 -25 -14
-25 -24 0 -30 22 -11 37 25 17 25 17 25 -12z m404 -10 c-10 -25 -34 -17 -34
10 0 22 3 24 20 15 11 -6 17 -16 14 -25z m-89 -315 l16 -30 -72 0 -71 0 14 23
c8 12 21 32 28 44 13 20 16 20 42 7 15 -8 35 -28 43 -44z m-161 10 l26 -40
-70 0 c-38 0 -70 4 -70 9 0 18 52 71 70 71 9 0 29 -18 44 -40z m846 7 c22 0
50 7 63 16 23 15 26 14 51 -12 46 -48 39 -51 -119 -51 l-146 0 16 30 c21 41
44 51 72 33 13 -9 41 -16 63 -16z"/>
<path d="M2515 3133 c-48 -10 -51 -14 -31 -28 19 -15 62 -11 81 7 9 8 -11 30
-25 27 -3 -1 -14 -3 -25 -6z"/>
<path d="M2401 3096 c2 -2 15 -9 29 -16 23 -12 24 -12 11 3 -7 10 -20 17 -29
17 -8 0 -13 -2 -11 -4z"/>
<path d="M916 2904 c-32 -31 -14 -86 33 -97 25 -6 71 30 71 55 0 48 -70 77
-104 42z"/>
<path d="M1614 1245 c-15 -23 -15 -27 0 -50 28 -43 86 -26 86 25 0 51 -58 68
-86 25z"/>
<path d="M3439 1254 c-29 -35 -12 -84 30 -84 22 0 51 30 51 53 0 39 -56 61
-81 31z"/>
</g>
</svg>
